<svg width="472" height="158" viewBox="0 0 472 158" fill="none" xmlns="http://www.w3.org/2000/svg">
  <!-- Premier 4 -->
  <rect x="0.0405273" y="0.522461" width="32.6255" height="77.5957" rx="6.26271" fill="#7592FF" stroke="#7592FF"/>
  <rect x="75.8726" y="3.16748" width="32.6255" height="154.31" rx="6.26271" fill="#7592FF" stroke="#7592FF"/>
  <rect x="16.7939" y="91.3442" width="32.6255" height="77.5957" rx="6.26271" transform="rotate(-90 16.7939 91.3442)" fill="#7592FF" stroke="#7592FF"/>

  <!-- 0 -->
  <rect x="203.103" y="41.7015" width="22.1453" height="20.7141" rx="2.63433" fill="#7592FF" stroke="#7592FF" stroke-width="0.752667"/>
  <rect x="246.752" y="41.7015" width="22.1453" height="20.7141" rx="2.63433" fill="#7592FF" stroke="#7592FF" stroke-width="0.752667"/>
  <rect x="258.201" y="98.2303" width="22.1453" height="20.7141" rx="2.63433" fill="#7592FF" stroke="#7592FF" stroke-width="0.752667"/>
  <rect x="191.654" y="98.2303" width="22.1453" height="20.7141" rx="2.63433" fill="#7592FF" stroke="#7592FF" stroke-width="0.752667"/>
  <rect x="207.396" y="82.847" width="57.5655" height="20.7141" rx="2.63433" fill="#7592FF" stroke="#7592FF" stroke-width="0.752667"/>
  <rect x="152.769" y="15.167" width="166.462" height="130.311" rx="28" stroke="#7592FF" stroke-width="24"/>

  <!-- 3 en blocs avec arrondis haut et bas -->
  <!-- Barre horizontale du haut -->
  <rect x="363.502" y="0.522461" width="85" height="32" rx="6.26271" fill="#7592FF" stroke="#7592FF"/>
  <!-- Petit bloc vertical pour arrondi haut -->
  <rect x="416" y="16" width="32" height="32" rx="6.26271" fill="#7592FF" stroke="#7592FF"/>
  <!-- Barre horizontale du milieu (plus courte) -->
  <rect x="380" y="62" width="68" height="32" rx="6.26271" fill="#7592FF" stroke="#7592FF"/>
  <!-- Petit bloc vertical pour arrondi bas -->
  <rect x="416" y="94" width="32" height="32" rx="6.26271" fill="#7592FF" stroke="#7592FF"/>
  <!-- Barre horizontale du bas -->
  <rect x="363.502" y="125" width="85" height="32" rx="6.26271" fill="#7592FF" stroke="#7592FF"/>
</svg>
